<svg version="1.2" baseProfile="tiny-ps" xmlns="http://www.w3.org/2000/svg" viewBox="0 0 3710 3710" width="3710" height="3710">
	<title>20944510-ai</title>
	<defs>
		<linearGradient id="grd1" gradientUnits="userSpaceOnUse"  x1="2465.942" y1="4765.089" x2="113.217" y2="1843.152">
			<stop offset="0" stop-color="#dae3fe"  />
			<stop offset="1" stop-color="#e9effd"  />
		</linearGradient>
		<linearGradient id="grd2" gradientUnits="userSpaceOnUse"  x1="2223.166" y1="1081.839" x2="1485.933" y2="-450.614">
			<stop offset="0" stop-color="#e1473d"  />
			<stop offset="1" stop-color="#e9605a"  />
		</linearGradient>
		<linearGradient id="grd3" gradientUnits="userSpaceOnUse"  x1="3344.955" y1="71.141" x2="3082.817" y2="924.771">
			<stop offset="0" stop-color="#ff928e"  />
			<stop offset="1" stop-color="#fe7062"  />
		</linearGradient>
		<linearGradient id="grd4" gradientUnits="userSpaceOnUse"  x1="3217.77" y1="1842.543" x2="826.549" y2="4902.571">
			<stop offset="0" stop-color="#ffffff"  />
			<stop offset="1" stop-color="#ffffff"  />
		</linearGradient>
		<linearGradient id="grd5" gradientUnits="userSpaceOnUse"  x1="996.902" y1="3177.486" x2="497.673" y2="3720.508">
			<stop offset="0" stop-color="#09005d"  />
			<stop offset="1" stop-color="#1a0f91"  />
		</linearGradient>
		<linearGradient id="grd6" gradientUnits="userSpaceOnUse"  x1="766.235" y1="3131" x2="811.112" y2="3131">
			<stop offset="0" stop-color="#a22b25"  />
			<stop offset="1" stop-color="#c0423c"  />
		</linearGradient>
		<linearGradient id="grd7" gradientUnits="userSpaceOnUse"  x1="664.464" y1="2470.346" x2="807.631" y2="2470.346">
			<stop offset="0" stop-color="#09005d"  />
			<stop offset="1" stop-color="#1a0f91"  />
		</linearGradient>
		<linearGradient id="grd8" gradientUnits="userSpaceOnUse"  x1="851.263" y1="3041.624" x2="346.759" y2="3590.383">
			<stop offset="0" stop-color="#09005d"  />
			<stop offset="1" stop-color="#1a0f91"  />
		</linearGradient>
		<linearGradient id="grd9" gradientUnits="userSpaceOnUse"  x1="604.499" y1="3121.542" x2="643.246" y2="3121.542">
			<stop offset="0" stop-color="#a22b25"  />
			<stop offset="1" stop-color="#c0423c"  />
		</linearGradient>
		<linearGradient id="grd10" gradientUnits="userSpaceOnUse"  x1="584.547" y1="2458.983" x2="773.395" y2="2458.983">
			<stop offset="0" stop-color="#09005d"  />
			<stop offset="1" stop-color="#1a0f91"  />
		</linearGradient>
		<linearGradient id="grd11" gradientUnits="userSpaceOnUse"  x1="389.846" y1="2208.264" x2="1071.232" y2="1717.893">
			<stop offset="0" stop-color="#4f52ff"  />
			<stop offset="1" stop-color="#4042e2"  />
		</linearGradient>
		<linearGradient id="grd12" gradientUnits="userSpaceOnUse"  x1="1065.067" y1="1847.562" x2="1294.336" y2="1847.562">
			<stop offset="0" stop-color="#a22b25"  />
			<stop offset="1" stop-color="#c0423c"  />
		</linearGradient>
		<linearGradient id="grd13" gradientUnits="userSpaceOnUse"  x1="1107.049" y1="1924.825" x2="959.315" y2="2260.955">
			<stop offset="0" stop-color="#a22b25"  />
			<stop offset="1" stop-color="#c0423c"  />
		</linearGradient>
		<linearGradient id="grd14" gradientUnits="userSpaceOnUse"  x1="1164.752" y1="1817.194" x2="1224.95" y2="1724.639">
			<stop offset="0" stop-color="#a22b25"  />
			<stop offset="1" stop-color="#c0423c"  />
		</linearGradient>
		<linearGradient id="grd15" gradientUnits="userSpaceOnUse"  x1="365.524" y1="2212.729" x2="1071.666" y2="1704.542">
			<stop offset="0" stop-color="#4f52ff"  />
			<stop offset="1" stop-color="#4042e2"  />
		</linearGradient>
		<linearGradient id="grd16" gradientUnits="userSpaceOnUse"  x1="452.155" y1="2234.044" x2="739.357" y2="2234.044">
			<stop offset="0" stop-color="#a22b25"  />
			<stop offset="1" stop-color="#c0423c"  />
		</linearGradient>
		<linearGradient id="grd17" gradientUnits="userSpaceOnUse"  x1="1004.721" y1="2062.456" x2="1163.17" y2="2722.665">
			<stop offset="0" stop-color="#09005d"  />
			<stop offset="1" stop-color="#1a0f91"  />
		</linearGradient>
		<linearGradient id="grd18" gradientUnits="userSpaceOnUse"  x1="720.448" y1="2236.629" x2="808.207" y2="2236.629">
			<stop offset="0" stop-color="#a22b25"  />
			<stop offset="1" stop-color="#c0423c"  />
		</linearGradient>
		<linearGradient id="grd19" gradientUnits="userSpaceOnUse"  x1="597.466" y1="2084.349" x2="743.265" y2="1884.263">
			<stop offset="0" stop-color="#a22b25"  />
			<stop offset="1" stop-color="#c0423c"  />
		</linearGradient>
		<linearGradient id="grd20" gradientUnits="userSpaceOnUse"  x1="776.102" y1="1976.092" x2="654.278" y2="1901.788">
			<stop offset="0" stop-color="#a22b25"  />
			<stop offset="1" stop-color="#c0423c"  />
		</linearGradient>
		<linearGradient id="grd21" gradientUnits="userSpaceOnUse"  x1="696.598" y1="1703.006" x2="853.165" y2="1826.667">
			<stop offset="0" stop-color="#09005d"  />
			<stop offset="1" stop-color="#1a0f91"  />
		</linearGradient>
		<linearGradient id="grd22" gradientUnits="userSpaceOnUse"  x1="768.961" y1="1965.553" x2="660.897" y2="1899.641">
			<stop offset="0" stop-color="#a22b25"  />
			<stop offset="1" stop-color="#c0423c"  />
		</linearGradient>
		<linearGradient id="grd23" gradientUnits="userSpaceOnUse"  x1="2929.57" y1="853.48" x2="2831.878" y2="1903.101">
			<stop offset="0" stop-color="#4f52ff"  />
			<stop offset="1" stop-color="#4042e2"  />
		</linearGradient>
		<linearGradient id="grd24" gradientUnits="userSpaceOnUse"  x1="2879.825" y1="848.85" x2="2782.133" y2="1898.471">
			<stop offset="0" stop-color="#4f52ff"  />
			<stop offset="1" stop-color="#4042e2"  />
		</linearGradient>
		<linearGradient id="grd25" gradientUnits="userSpaceOnUse"  x1="2578.281" y1="366.225" x2="1417.245" y2="3952.321">
			<stop offset="0" stop-color="#4f52ff"  />
			<stop offset="1" stop-color="#4042e2"  />
		</linearGradient>
		<linearGradient id="grd26" gradientUnits="userSpaceOnUse"  x1="1638.19" y1="2645.847" x2="1633.106" y2="2518.744">
			<stop offset="0" stop-color="#09005d"  />
			<stop offset="1" stop-color="#1a0f91"  />
		</linearGradient>
		<linearGradient id="grd27" gradientUnits="userSpaceOnUse"  x1="1619.787" y1="2506.397" x2="1624.871" y2="2356.415">
			<stop offset="0" stop-color="#09005d"  />
			<stop offset="1" stop-color="#1a0f91"  />
		</linearGradient>
		<linearGradient id="grd28" gradientUnits="userSpaceOnUse"  x1="3243.214" y1="570.455" x2="2859.321" y2="3341.958">
			<stop offset="0" stop-color="#4f52ff"  />
			<stop offset="1" stop-color="#4042e2"  />
		</linearGradient>
		<linearGradient id="grd29" gradientUnits="userSpaceOnUse"  x1="1571.259" y1="2417.564" x2="1572.106" y2="2233.689">
			<stop offset="0" stop-color="#09005d"  />
			<stop offset="1" stop-color="#1a0f91"  />
		</linearGradient>
		<linearGradient id="grd30" gradientUnits="userSpaceOnUse"  x1="1482.072" y1="2298.384" x2="1566.289" y2="2298.384">
			<stop offset="0" stop-color="#09005d"  />
			<stop offset="1" stop-color="#1a0f91"  />
		</linearGradient>
		<linearGradient id="grd31" gradientUnits="userSpaceOnUse"  x1="3242.111" y1="574.51" x2="929.407" y2="2962.119">
			<stop offset="0" stop-color="#4f52ff"  />
			<stop offset="1" stop-color="#4042e2"  />
		</linearGradient>
		<linearGradient id="grd32" gradientUnits="userSpaceOnUse"  x1="3040.236" y1="1155.719" x2="2599.026" y2="3079.966">
			<stop offset="0" stop-color="#4f52ff"  />
			<stop offset="1" stop-color="#4042e2"  />
		</linearGradient>
		<linearGradient id="grd33" gradientUnits="userSpaceOnUse"  x1="3111.405" y1="1170.991" x2="2670.195" y2="3095.239">
			<stop offset="0" stop-color="#4f52ff"  />
			<stop offset="1" stop-color="#4042e2"  />
		</linearGradient>
		<linearGradient id="grd34" gradientUnits="userSpaceOnUse"  x1="3182.575" y1="1186.257" x2="2741.364" y2="3110.507">
			<stop offset="0" stop-color="#4f52ff"  />
			<stop offset="1" stop-color="#4042e2"  />
		</linearGradient>
		<linearGradient id="grd35" gradientUnits="userSpaceOnUse"  x1="1949.397" y1="1788.239" x2="1739.846" y2="2128.76">
			<stop offset="0" stop-color="#09005d"  />
			<stop offset="1" stop-color="#1a0f91"  />
		</linearGradient>
		<linearGradient id="grd36" gradientUnits="userSpaceOnUse"  x1="2133.668" y1="1286.309" x2="1571.393" y2="2410.856">
			<stop offset="0" stop-color="#4f52ff"  />
			<stop offset="1" stop-color="#4042e2"  />
		</linearGradient>
		<linearGradient id="grd37" gradientUnits="userSpaceOnUse"  x1="2153.424" y1="2839.279" x2="2162.511" y2="2245.177">
			<stop offset="0" stop-color="#4f52ff"  />
			<stop offset="1" stop-color="#4042e2"  />
		</linearGradient>
		<linearGradient id="grd38" gradientUnits="userSpaceOnUse"  x1="3263.176" y1="2330.68" x2="3264.312" y2="2712.749">
			<stop offset="0" stop-color="#4f52ff"  />
			<stop offset="1" stop-color="#4042e2"  />
		</linearGradient>
		<linearGradient id="grd39" gradientUnits="userSpaceOnUse"  x1="1752.665" y1="2897.676" x2="2116.172" y2="3105.16">
			<stop offset="0" stop-color="#febbba"  />
			<stop offset="1" stop-color="#ff928e"  />
		</linearGradient>
		<linearGradient id="grd40" gradientUnits="userSpaceOnUse"  x1="2025.256" y1="2817.815" x2="2188.006" y2="3211.713">
			<stop offset="0" stop-color="#09005d"  />
			<stop offset="1" stop-color="#1a0f91"  />
		</linearGradient>
		<linearGradient id="grd41" gradientUnits="userSpaceOnUse"  x1="2089.097" y1="2445.731" x2="845.357" y2="1667.131">
			<stop offset="0" stop-color="#febbba"  />
			<stop offset="1" stop-color="#ff928e"  />
		</linearGradient>
		<linearGradient id="grd42" gradientUnits="userSpaceOnUse"  x1="2080.574" y1="2905.486" x2="2319.445" y2="3257.932">
			<stop offset="0" stop-color="#09005d"  />
			<stop offset="1" stop-color="#1a0f91"  />
		</linearGradient>
		<linearGradient id="grd43" gradientUnits="userSpaceOnUse"  x1="2641.885" y1="2632.706" x2="2310.878" y2="1857.663">
			<stop offset="0" stop-color="#09005d"  />
			<stop offset="1" stop-color="#1a0f91"  />
		</linearGradient>
		<linearGradient id="grd44" gradientUnits="userSpaceOnUse"  x1="2480.498" y1="1882.521" x2="2570.876" y2="2069.09">
			<stop offset="0" stop-color="#09005d"  />
			<stop offset="1" stop-color="#1a0f91"  />
		</linearGradient>
		<linearGradient id="grd45" gradientUnits="userSpaceOnUse"  x1="2824.956" y1="2213.69" x2="2738.763" y2="2350.919">
			<stop offset="0" stop-color="#ff928e"  />
			<stop offset="1" stop-color="#fe7062"  />
		</linearGradient>
		<linearGradient id="grd46" gradientUnits="userSpaceOnUse"  x1="2533.156" y1="2479.957" x2="2893.087" y2="2479.957">
			<stop offset="0" stop-color="#febbba"  />
			<stop offset="1" stop-color="#ff928e"  />
		</linearGradient>
		<linearGradient id="grd47" gradientUnits="userSpaceOnUse"  x1="2348.012" y1="2340.434" x2="2356.088" y2="2214.584">
			<stop offset="0" stop-color="#febbba"  />
			<stop offset="1" stop-color="#ff928e"  />
		</linearGradient>
		<linearGradient id="grd48" gradientUnits="userSpaceOnUse"  x1="2300.92" y1="2184.352" x2="2371.667" y2="1900.991">
			<stop offset="0" stop-color="#febbba"  />
			<stop offset="1" stop-color="#ff928e"  />
		</linearGradient>
		<linearGradient id="grd49" gradientUnits="userSpaceOnUse"  x1="2362.701" y1="1929.905" x2="2481.247" y2="2086.947">
			<stop offset="0" stop-color="#09005d"  />
			<stop offset="1" stop-color="#1a0f91"  />
		</linearGradient>
		<linearGradient id="grd50" gradientUnits="userSpaceOnUse"  x1="2371.83" y1="2196.514" x2="2442.778" y2="1912.344">
			<stop offset="0" stop-color="#febbba"  />
			<stop offset="1" stop-color="#ff928e"  />
		</linearGradient>
		<linearGradient id="grd51" gradientUnits="userSpaceOnUse"  x1="2533.148" y1="2567.504" x2="2347.435" y2="2628.414">
			<stop offset="0" stop-color="#4f52ff"  />
			<stop offset="1" stop-color="#4042e2"  />
		</linearGradient>
		<linearGradient id="grd52" gradientUnits="userSpaceOnUse"  x1="2402.59" y1="2530.508" x2="2268.181" y2="2672.569">
			<stop offset="0" stop-color="#09005d"  />
			<stop offset="1" stop-color="#1a0f91"  />
		</linearGradient>
	</defs>
	<style>
		tspan { white-space:pre }
		.shp0 { fill: #ffffff } 
		.shp1 { fill: url(#grd1) } 
		.shp2 { fill: #91b3fa } 
		.shp3 { fill: #bdd0fb } 
		.shp4 { fill: url(#grd2) } 
		.shp5 { fill: url(#grd3) } 
		.shp6 { opacity: 0.529;fill: url(#grd4) } 
		.shp7 { fill: url(#grd5) } 
		.shp8 { fill: url(#grd6) } 
		.shp9 { fill: url(#grd7) } 
		.shp10 { fill: url(#grd8) } 
		.shp11 { fill: url(#grd9) } 
		.shp12 { fill: url(#grd10) } 
		.shp13 { fill: url(#grd11) } 
		.shp14 { fill: url(#grd12) } 
		.shp15 { fill: url(#grd13) } 
		.shp16 { fill: url(#grd14) } 
		.shp17 { fill: url(#grd15) } 
		.shp18 { fill: url(#grd16) } 
		.shp19 { fill: url(#grd17) } 
		.shp20 { fill: #7d97f4 } 
		.shp21 { fill: url(#grd18) } 
		.shp22 { fill: url(#grd19) } 
		.shp23 { fill: url(#grd20) } 
		.shp24 { fill: url(#grd21) } 
		.shp25 { fill: url(#grd22) } 
		.shp26 { fill: url(#grd23) } 
		.shp27 { fill: url(#grd24) } 
		.shp28 { fill: url(#grd25) } 
		.shp29 { fill: #d8dee8 } 
		.shp30 { fill: url(#grd26) } 
		.shp31 { fill: url(#grd27) } 
		.shp32 { fill: url(#grd28) } 
		.shp33 { fill: url(#grd29) } 
		.shp34 { fill: url(#grd30) } 
		.shp35 { fill: url(#grd31) } 
		.shp36 { fill: url(#grd32) } 
		.shp37 { fill: url(#grd33) } 
		.shp38 { fill: url(#grd34) } 
		.shp39 { fill: url(#grd35) } 
		.shp40 { fill: url(#grd36) } 
		.shp41 { fill: url(#grd37) } 
		.shp42 { fill: url(#grd38) } 
		.shp43 { fill: url(#grd39) } 
		.shp44 { fill: url(#grd40) } 
		.shp45 { fill: url(#grd41) } 
		.shp46 { fill: url(#grd42) } 
		.shp47 { fill: url(#grd43) } 
		.shp48 { fill: url(#grd44) } 
		.shp49 { fill: url(#grd45) } 
		.shp50 { fill: url(#grd46) } 
		.shp51 { fill: url(#grd47) } 
		.shp52 { fill: url(#grd48) } 
		.shp53 { fill: url(#grd49) } 
		.shp54 { fill: url(#grd50) } 
		.shp55 { fill: url(#grd51) } 
		.shp56 { fill: url(#grd52) } 
	</style>
	<g id="Background">
		<g id="&lt;Group&gt;">
			<g id="&lt;Group&gt;">
				<path id="&lt;Path&gt;" class="shp0" d="M3710 3710L0 3710L0 0L3710 0L3710 3710Z" />
			</g>
		</g>
	</g>
	<g id="Illustration">
		<g id="&lt;Group&gt;">
			<path id="&lt;Path&gt;" class="shp1" d="M2925.9 2825.47C2869.3 2885.06 2815.74 2923.48 2773.43 2953.84C2276.04 3310.72 1687.5 3206.7 1562.42 3181.29C1377.72 3143.78 1020.68 3071.26 762.56 2767.71C372.03 2308.46 432.84 1584.92 735.76 1107.3C791.17 1019.94 1083.85 535.04 1678.73 457.28C2038.75 410.22 2458.41 505.14 2762.31 759.75C3400.24 1294.21 3354.83 2373.91 2925.9 2825.47Z" />
			<g id="&lt;Group&gt;">
				<g id="&lt;Group&gt;">
					<path id="&lt;Path&gt;" class="shp2" d="M2282.55 986.87C2381.54 664.6 2853.7 551.9 2999.04 524.52C3019.59 520.65 3038.1 537.47 3036.29 558.3C3031.64 611.7 3024.71 734.16 3018.31 1014.25C3007.37 1492.69 2715.58 1548.44 2562.12 1637.62C2459.8 1697.07 2411.29 1837.86 2416.57 2059.99C2248.98 1599.28 2204.31 1241.58 2282.55 986.87Z" />
					<path id="&lt;Path&gt;" class="shp3" d="M2894.85 657.78C2904.55 667.07 2882.7 668.05 2778.94 801.31L2765.16 818.76C2631.23 995.99 2501.75 1204.96 2443.7 1420.49C2398.26 1596.03 2390.03 1790.57 2409.86 1946.87C2409.95 1946.53 2411.27 1957.22 2401.32 1959.11C2395.54 1960.21 2389.96 1956.41 2388.86 1950.63C2371.5 1859.14 2364.38 1720.94 2378.7 1590.16C2394.74 1433.34 2431.66 1345.08 2444.28 1303.58C2542.61 1051.76 2727.09 799.93 2886.64 657.64C2888.97 655.57 2892.55 655.59 2894.85 657.78Z" />
				</g>
				<g id="&lt;Group&gt;">
					<path id="&lt;Path&gt;" class="shp3" d="M2210.88 2508.99C2189.6 2519.43 2412.34 2239.34 2482.11 1799.43C2514.99 1592.13 2515.42 1332.41 2633.5 1232.32C2731.78 1149.02 3066.21 1201.61 3175.64 1221.59C3189.31 1224.09 3193.91 1241.36 3183.27 1250.3C3130.79 1294.37 3018.54 1398.32 2989.29 1503.09C2950.74 1641.17 2819.46 1729 2701.93 1752.77C2584.4 1776.54 2519.02 1799.61 2461.76 1987.57C2404.51 2175.52 2271.35 2479.35 2210.88 2508.99Z" />
					<path id="&lt;Path&gt;" class="shp2" d="M3024.85 1282.64C3025.02 1284.29 3023.82 1285.76 3022.17 1285.93C3022.49 1285.86 2914.32 1292.48 2801.09 1356.8C2699.36 1416.51 2668.15 1478.86 2623.55 1570.91C2581.96 1655.28 2529.75 1768.09 2493.39 1857.07C2493.71 1856.75 2492.04 1860.42 2488.7 1859.31C2486.74 1858.66 2485.67 1856.54 2486.32 1854.58C2538.51 1697.07 2632.46 1507.06 2649.04 1480.33L2656.22 1468.93C2732.27 1349.47 2882.13 1285.78 3021.74 1279.94C3023.31 1279.88 3024.69 1281.05 3024.85 1282.64Z" />
				</g>
			</g>
			<g id="&lt;Group&gt;">
				<g id="&lt;Group&gt;">
					<path id="&lt;Path&gt;" class="shp4" d="M2369.34 429.78C2470.1 423.06 2537.44 470.2 2571.38 571.2C2528.72 627.33 2341.84 637.34 2010.73 601.25C2149.04 493.65 2268.57 436.5 2369.34 429.78Z" />
					<path id="&lt;Path&gt;" class="shp5" d="M727.07 471.72C1101.75 448.5 1649.17 434.51 2369.34 429.78C2487.74 407.17 2538.87 476.47 2571.38 571.2C2547.01 514.28 2511.49 476.83 2464.58 459.26C2390.11 431.35 2310.91 488.49 2310.26 568L2291.98 2818.36C2291.27 2906.3 2340.94 2986.88 2419.81 3025.77L2419.81 3025.77C2429.42 3026.2 2429.58 3040.38 2419.98 3040.98C2006.39 3067.13 1141.71 3019.96 779.62 2996.72C667.7 2989.54 578.09 2901.23 569.27 2789.43C529.69 2287.85 487.07 1261.78 443.77 775.16C430.21 622.75 574.35 481.19 727.07 471.72Z" />
					<path id="&lt;Path&gt;" class="shp6" d="M772.85 523.84L2238.01 480.71C2173.83 955.86 2200.91 1923.47 2225.4 2877.07C2226.86 2933.61 2260.01 2984.49 2311.14 3008.65C1619.2 3016.62 1124.57 3010.07 827.26 2988.98C722.25 2981.53 636.59 2902.07 620.99 2797.97C559.76 2389.4 503.58 1291.49 487.2 736.3C483.42 608.2 644.8 528.77 772.85 523.84Z" />
				</g>
				<g id="&lt;Group&gt;">
					<path id="&lt;Compound Path&gt;" fill-rule="evenodd" class="shp0" d="M1579.43 2366.71C1547.66 2366.71 1514.7 2363.55 1481.42 2355.95L1478.61 2355.31C1285.95 2311.29 1278.43 2309.56 1159.67 2343.12C1037.18 2377.71 822.02 2279.37 812.92 2275.16L807.71 2272.76L808.62 2267.09C809.58 2261.11 907.63 1664.25 1169.58 1276.76L1170.17 1275.89L1170.98 1275.2C1174.79 1271.99 1178.7 1267.43 1179.55 1265.28L1115.62 1038.98C1112.3 1027.26 1112.85 1014.97 1117.18 1003.42C1139.51 944.06 1139.28 871.14 1116.61 817.63C1112.15 807.14 1112.7 795.28 1118.1 785.11C1123.6 774.76 1133.32 767.53 1144.79 765.29C1274.77 739.8 1451.88 748.22 1545.89 755.51C1558.28 756.47 1569.05 763.12 1575.45 773.76C1581.88 784.43 1582.71 797.12 1577.73 808.57C1544.9 884.11 1565.4 962.47 1575.74 992.65C1579.14 1002.59 1579.7 1013.31 1577.34 1023.64L1521.48 1268.1C1522.22 1269.39 1524.04 1271.5 1525.4 1272.74L1526.2 1273.47L1526.77 1274.4C1530.02 1279.75 1852.22 1815.28 1865.96 2284.3L1866.09 2288.74L1862.28 2291.02C1860.76 2291.93 1734.06 2366.71 1579.43 2366.71ZM1280.91 2304.81C1325.66 2304.81 1376.79 2316.49 1481.99 2340.54L1484.79 2341.18C1658.69 2380.89 1823.71 2295.17 1850.67 2280.2C1835.42 1825.08 1529.08 1307.75 1514.34 1283.14C1509.98 1278.95 1504.19 1271.72 1506.72 1264.66L1562.57 1020.26C1564.3 1012.68 1563.89 1004.83 1561.4 997.56C1550.49 965.7 1528.89 882.94 1563.83 802.53C1566.83 795.63 1566.33 787.99 1562.47 781.57C1558.63 775.19 1552.16 771.19 1544.72 770.61C1451.48 763.39 1275.93 755.01 1147.71 780.15C1140.74 781.52 1134.83 785.92 1131.48 792.22C1128.23 798.34 1127.9 805.44 1130.55 811.72C1149.75 857 1160.03 932.54 1131.37 1008.75C1128.18 1017.24 1127.77 1026.28 1130.2 1034.86L1193.92 1260.4C1198.02 1270.13 1187.33 1281.1 1181.56 1286.1C935.6 1650.56 835.26 2201.57 824.55 2263.77C858.57 2278.73 1048.67 2358.72 1155.56 2328.53C1211.08 2312.85 1243.81 2304.81 1280.91 2304.81Z" />
					<path id="&lt;Compound Path&gt;" fill-rule="evenodd" class="shp0" d="M1307.11 1306.79C1257.24 1306.79 1208.49 1302.05 1173.07 1288.04L1167.96 1286.02L1172.11 1217.79L1179.89 1218.51C1182.23 1218.72 1414.58 1239.74 1522.94 1212.17L1533.17 1209.57L1527.4 1284.7L1521.7 1285.78C1515.13 1287.02 1408.85 1306.79 1307.11 1306.79ZM1183.76 1275.87C1280.32 1310.18 1477.2 1278.2 1513.19 1271.91L1516.46 1229.25C1413.1 1251.55 1227.19 1237.71 1186.29 1234.27L1183.76 1275.87Z" />
					<path id="&lt;Compound Path&gt;" fill-rule="evenodd" class="shp0" d="M673.59 1607.22L590.36 1462.96L953.7 736.3L1087.4 1110.66L673.59 1607.22ZM607.56 1462.45L675.86 1580.84L1070.22 1107.61L951.37 774.83L607.56 1462.45Z" />
					<path id="&lt;Path&gt;" class="shp0" d="M2078.9 1445.03L1468.73 1445.03L1385.66 1320.43C1383.34 1316.95 1384.28 1312.24 1387.77 1309.92C1391.25 1307.59 1395.95 1308.54 1398.27 1312.02L1476.84 1429.87L2078.9 1429.87C2083.09 1429.87 2086.48 1433.27 2086.48 1437.45C2086.48 1441.63 2083.09 1445.03 2078.9 1445.03Z" />
					<path id="&lt;Path&gt;" class="shp0" d="M2078.9 1409.67L1775.84 1409.67C1771.66 1409.67 1768.27 1406.28 1768.27 1402.09C1768.27 1397.91 1771.66 1394.52 1775.84 1394.52L2078.9 1394.52C2083.09 1394.52 2086.48 1397.91 2086.48 1402.09C2086.48 1406.28 2083.09 1409.67 2078.9 1409.67Z" />
					<path id="&lt;Path&gt;" class="shp0" d="M1775.8 1368.33C1771.76 1368.33 1768.4 1365.14 1768.24 1361.06C1768.07 1356.87 1771.32 1353.35 1775.51 1353.19L2117.17 1339.58L2070.3 1362.35C2066.54 1364.17 2062.01 1362.6 2060.18 1358.84C2059.89 1358.25 2059.69 1357.65 2059.57 1357.04L1776.11 1368.33C1776.01 1368.33 1775.9 1368.33 1775.8 1368.33Z" />
					<path id="&lt;Path&gt;" class="shp0" d="M1333.88 823.75C1329.7 823.75 1326.31 820.36 1326.31 816.18L1326.31 785.87C1326.31 781.69 1329.7 778.29 1333.88 778.29C1338.07 778.29 1341.46 781.69 1341.46 785.87L1341.46 816.18C1341.46 820.36 1338.07 823.75 1333.88 823.75Z" />
					<path id="&lt;Path&gt;" class="shp0" d="M1349.04 922.25C1344.85 922.25 1341.46 918.85 1341.46 914.67L1341.46 886.89C1341.46 882.71 1344.85 879.31 1349.04 879.31C1353.22 879.31 1356.61 882.71 1356.61 886.89L1356.61 914.67C1356.61 918.85 1353.22 922.25 1349.04 922.25Z" />
					<path id="&lt;Path&gt;" class="shp0" d="M1359.14 1078.83C1354.95 1078.83 1351.56 1075.44 1351.56 1071.25L1351.56 1018.22C1351.56 1014.03 1354.95 1010.64 1359.14 1010.64C1363.32 1010.64 1366.71 1014.03 1366.71 1018.22L1366.71 1071.25C1366.71 1075.44 1363.32 1078.83 1359.14 1078.83Z" />
					<path id="&lt;Path&gt;" class="shp0" d="M1359.7 1258.17C1359.57 1258.17 1359.43 1258.16 1359.3 1258.16C1355.12 1257.94 1351.91 1254.38 1352.13 1250.2L1354.51 1204.73C1354.73 1200.55 1358.32 1197.36 1362.47 1197.56C1366.65 1197.77 1369.86 1201.34 1369.64 1205.52L1367.26 1250.99C1367.05 1255.03 1363.7 1258.17 1359.7 1258.17Z" />
					<path id="&lt;Path&gt;" class="shp0" d="M1359.72 1419.81C1359.55 1419.81 1359.38 1419.81 1359.21 1419.8C1355.03 1419.51 1351.88 1415.9 1352.16 1411.73L1354.53 1376.36C1354.81 1372.19 1358.41 1369 1362.6 1369.31C1366.77 1369.59 1369.93 1373.2 1369.65 1377.37L1367.28 1412.74C1367.01 1416.74 1363.68 1419.81 1359.72 1419.81Z" />
					<path id="&lt;Path&gt;" class="shp0" d="M1362.14 1596.59C1361.96 1596.59 1361.78 1596.59 1361.6 1596.57C1357.43 1596.28 1354.28 1592.66 1354.58 1588.48L1357.06 1553.12C1357.35 1548.95 1360.96 1545.79 1365.15 1546.1C1369.33 1546.39 1372.47 1550.01 1372.18 1554.18L1369.69 1589.55C1369.41 1593.54 1366.08 1596.59 1362.14 1596.59Z" />
					<path id="&lt;Path&gt;" class="shp0" d="M1369.24 1745.56C1365.05 1745.56 1361.66 1742.17 1361.66 1737.98L1361.66 1692.52C1361.66 1688.34 1365.05 1684.95 1369.24 1684.95C1373.42 1684.95 1376.82 1688.34 1376.82 1692.52L1376.82 1737.98C1376.82 1742.17 1373.42 1745.56 1369.24 1745.56Z" />
					<path id="&lt;Path&gt;" class="shp0" d="M1374.29 1854.16C1370.1 1854.16 1366.71 1850.76 1366.71 1846.58L1366.71 1828.9C1366.71 1824.72 1370.1 1821.32 1374.29 1821.32C1378.48 1821.32 1381.87 1824.72 1381.87 1828.9L1381.87 1846.58C1381.87 1850.76 1378.48 1854.16 1374.29 1854.16Z" />
					<path id="&lt;Path&gt;" class="shp0" d="M1380.55 2010.74C1380.55 2010.74 1380.55 2010.74 1380.54 2010.74C1376.36 2010.73 1372.97 2007.33 1372.98 2003.15L1373.08 1937.49C1373.09 1933.3 1376.48 1929.92 1380.66 1929.92C1384.84 1929.82 1388.24 1933.32 1388.24 1937.51L1388.13 2003.17C1388.12 2007.35 1384.73 2010.74 1380.55 2010.74Z" />
					<path id="&lt;Path&gt;" class="shp0" d="M1384.39 2116.81C1380.21 2116.81 1376.82 2113.41 1376.82 2109.23L1376.82 2099.13C1376.82 2094.95 1380.21 2091.55 1384.39 2091.55C1388.58 2091.55 1391.97 2094.95 1391.97 2099.13L1391.97 2109.23C1391.97 2113.41 1388.58 2116.81 1384.39 2116.81Z" />
					<path id="&lt;Path&gt;" class="shp0" d="M1384.39 2243.08C1380.21 2243.08 1376.82 2239.69 1376.82 2235.51L1376.82 2207.73C1376.82 2203.54 1380.21 2200.15 1384.39 2200.15C1388.58 2200.15 1391.97 2203.54 1391.97 2207.73L1391.97 2235.51C1391.97 2239.69 1388.58 2243.08 1384.39 2243.08Z" />
					<path id="&lt;Path&gt;" class="shp0" d="M1386.91 2296.12C1383.37 2296.12 1380.21 2293.63 1379.49 2290.03L1376.96 2277.4C1376.14 2273.29 1378.8 2269.3 1382.91 2268.49C1387.01 2267.61 1391 2270.33 1391.82 2274.43L1394.35 2287.06C1395.17 2291.16 1392.51 2295.15 1388.4 2295.97C1387.9 2296.07 1387.4 2296.12 1386.91 2296.12Z" />
					<path id="&lt;Path&gt;" class="shp0" d="M1478.28 1094.06C1477.86 1094.06 1477.44 1094.02 1477.02 1093.95C1472.9 1093.26 1470.11 1089.36 1470.8 1085.23L1473.33 1070.08C1474.02 1065.95 1477.93 1063.19 1482.05 1063.85C1486.18 1064.54 1488.96 1068.45 1488.28 1072.57L1485.74 1087.73C1485.12 1091.43 1481.91 1094.06 1478.28 1094.06Z" />
					<path id="&lt;Path&gt;" class="shp0" d="M1475.36 1157.19C1472.88 1157.19 1470.45 1155.98 1469 1153.74C1466.72 1150.23 1467.72 1145.54 1471.23 1143.26C1472.08 1142.71 1472.72 1141.54 1472.91 1140.2C1473.1 1138.86 1472.81 1137.56 1472.15 1136.8C1469.4 1133.64 1469.75 1128.85 1472.91 1126.11C1476.07 1123.37 1480.86 1123.72 1483.59 1126.87C1487.15 1130.97 1488.72 1136.6 1487.92 1142.32C1487.11 1148.04 1484.03 1153.02 1479.48 1155.97C1478.21 1156.8 1476.78 1157.19 1475.36 1157.19Z" />
					<path id="&lt;Path&gt;" class="shp0" d="M1475.31 1200.05C1471.12 1200.05 1467.73 1196.66 1467.73 1192.48L1467.73 1174.8C1467.73 1170.61 1471.12 1167.22 1475.31 1167.22C1479.5 1167.22 1482.89 1170.61 1482.89 1174.8L1482.89 1192.48C1482.89 1196.66 1479.5 1200.05 1475.31 1200.05Z" />
					<path id="&lt;Path&gt;" class="shp0" d="M1222.76 1116.71C1218.58 1116.71 1215.18 1113.32 1215.18 1109.13L1215.18 1099.03C1215.18 1094.85 1218.58 1091.46 1222.76 1091.46C1226.95 1091.46 1230.34 1094.85 1230.34 1099.03L1230.34 1109.13C1230.34 1113.32 1226.95 1116.71 1222.76 1116.71Z" />
					<path id="&lt;Path&gt;" class="shp0" d="M1235.75 1182.25C1232.63 1182.25 1229.71 1180.31 1228.61 1177.2L1225.93 1169.68C1224.54 1165.73 1226.6 1161.41 1230.55 1160C1234.49 1158.61 1238.82 1160.68 1240.22 1164.62L1242.89 1172.13C1244.29 1176.07 1242.22 1180.41 1238.28 1181.81C1237.44 1182.11 1236.59 1182.25 1235.75 1182.25Z" />
					<path id="&lt;Path&gt;" class="shp0" d="M1240.94 1220.42C1240.14 1220.42 1239.33 1220.3 1238.53 1220.03C1234.56 1218.69 1232.43 1214.4 1233.77 1210.43L1236.31 1202.86C1237.64 1198.9 1241.94 1196.79 1245.91 1198.1C1249.87 1199.44 1252.01 1203.73 1250.67 1207.7L1248.12 1215.26C1247.06 1218.43 1244.11 1220.42 1240.94 1220.42Z" />
					<path id="&lt;Path&gt;" class="shp0" d="M1245.49 1242.99C1243.55 1242.99 1241.62 1242.25 1240.14 1240.78C1237.18 1237.82 1237.17 1233.02 1240.13 1230.06L1242.65 1227.53C1245.6 1224.58 1250.4 1224.56 1253.36 1227.52C1256.33 1230.47 1256.33 1235.27 1253.38 1238.24L1250.85 1240.76C1249.37 1242.24 1247.43 1242.99 1245.49 1242.99Z" />
					<path id="&lt;Path&gt;" class="shp0" d="M869.91 1129.66C868.89 1129.66 867.85 1129.45 866.85 1129.01C863.02 1127.33 861.29 1122.85 862.98 1119.02L865.26 1113.86C866.95 1110.04 871.42 1108.3 875.25 1109.99C879.08 1111.68 880.81 1116.15 879.12 1119.98L876.84 1125.14C875.59 1127.97 872.82 1129.66 869.91 1129.66Z" />
					<path id="&lt;Path&gt;" class="shp0" d="M894.45 1091.46C890.26 1091.46 886.87 1088.06 886.87 1083.88L886.87 1076.3C886.87 1072.12 890.26 1068.73 894.45 1068.73C898.63 1068.73 902.02 1072.12 902.02 1076.3L902.02 1083.88C902.02 1088.06 898.63 1091.46 894.45 1091.46Z" />
					<path id="&lt;Path&gt;" class="shp0" d="M915.38 1053.9C914.37 1053.9 913.34 1053.7 912.35 1053.26C908.51 1051.58 906.77 1047.11 908.45 1043.28L910.72 1038.11C912.41 1034.28 916.87 1032.53 920.71 1034.22C924.54 1035.91 926.28 1040.38 924.59 1044.21L922.33 1049.37C921.08 1052.21 918.3 1053.9 915.38 1053.9Z" />
					<path id="&lt;Path&gt;" class="shp0" d="M944.96 1003.06C943.02 1003.06 941.09 1002.33 939.61 1000.85C936.64 997.9 936.64 993.1 939.59 990.14L942.12 987.61C945.07 984.66 949.86 984.64 952.83 987.6C955.79 990.55 955.8 995.35 952.85 998.31L950.32 1000.84C948.84 1002.32 946.9 1003.06 944.96 1003.06Z" />
					<path id="&lt;Path&gt;" class="shp0" d="M957.79 977.91C956.63 977.91 955.45 977.65 954.35 977.09C950.63 975.19 949.14 970.63 951.04 966.9L953.59 961.88C955.47 958.15 960.03 956.66 963.77 958.54C967.5 960.43 968.99 964.98 967.11 968.72L964.54 973.77C963.21 976.4 960.55 977.91 957.79 977.91Z" />
					<path id="&lt;Path&gt;" class="shp0" d="M967.68 944.98C963.5 944.98 960.11 941.58 960.11 937.4L960.11 932.35C960.11 928.17 963.5 924.77 967.68 924.77C971.87 924.77 975.26 928.17 975.26 932.35L975.26 937.4C975.26 941.58 971.87 944.98 967.68 944.98Z" />
					<path id="&lt;Path&gt;" class="shp0" d="M977.79 914.67C973.6 914.67 970.21 911.28 970.21 907.1L970.21 902.04C970.21 897.86 973.6 894.47 977.79 894.47C981.97 894.47 985.36 897.86 985.36 902.04L985.36 907.1C985.36 911.28 981.97 914.67 977.79 914.67Z" />
					<path id="&lt;Path&gt;" class="shp0" d="M985.36 859.11C981.18 859.11 977.79 855.72 977.79 851.53L977.79 849.01C977.79 844.83 981.18 841.43 985.36 841.43C989.55 841.43 992.94 844.83 992.94 849.01L992.94 851.53C992.94 855.72 989.55 859.11 985.36 859.11Z" />
					<path id="&lt;Path&gt;" class="shp0" d="M856.77 1172.38C855.61 1172.38 854.43 1172.11 853.33 1171.55C849.61 1169.65 848.12 1165.1 850.02 1161.36L852.57 1156.34C854.45 1152.61 859.01 1151.12 862.75 1153C866.48 1154.89 867.98 1159.45 866.09 1163.18L863.52 1168.24C862.19 1170.86 859.53 1172.38 856.77 1172.38Z" />
					<path id="&lt;Path&gt;" class="shp0" d="M879.98 1149.97C878.61 1149.97 877.24 1149.61 875.99 1148.84C872.44 1146.63 871.34 1141.96 873.54 1138.4L878.34 1130.67C880.55 1127.1 885.22 1126 888.77 1128.22C892.33 1130.43 893.42 1135.1 891.21 1138.66L886.42 1146.39C884.99 1148.7 882.51 1149.97 879.98 1149.97Z" />
					<path id="&lt;Path&gt;" class="shp0" d="M901.43 1123.98C900.23 1123.98 899.02 1123.7 897.89 1123.1C894.19 1121.15 892.78 1116.56 894.73 1112.86L897.36 1107.87C899.31 1104.17 903.89 1102.75 907.59 1104.7C911.3 1106.65 912.72 1111.23 910.77 1114.94L908.13 1119.94C906.78 1122.51 904.15 1123.98 901.43 1123.98Z" />
					<path id="&lt;Path&gt;" class="shp0" d="M924.75 1093.98C922.82 1093.98 920.88 1093.25 919.4 1091.77C916.44 1088.82 916.43 1084.02 919.39 1081.05L921.91 1078.53C924.87 1075.57 929.66 1075.55 932.63 1078.51C935.59 1081.47 935.6 1086.27 932.64 1089.23L930.12 1091.76C928.64 1093.24 926.69 1093.98 924.75 1093.98Z" />
					<path id="&lt;Path&gt;" class="shp0" d="M944.96 1078.83C940.77 1078.83 937.38 1075.44 937.38 1071.25L937.38 1068.73C937.38 1064.54 940.77 1061.15 944.96 1061.15C949.14 1061.15 952.53 1064.54 952.53 1068.73L952.53 1071.25C952.53 1075.44 949.14 1078.83 944.96 1078.83Z" />
					<path id="&lt;Path&gt;" class="shp0" d="M968.42 1053.9C967.4 1053.9 966.37 1053.7 965.38 1053.26C961.55 1051.58 959.8 1047.11 961.48 1043.28L963.76 1038.11C965.44 1034.28 969.9 1032.53 973.74 1034.22C977.57 1035.91 979.31 1040.38 977.63 1044.21L975.36 1049.37C974.11 1052.21 971.34 1053.9 968.42 1053.9Z" />
					<path id="&lt;Path&gt;" class="shp0" d="M997.98 1023.27C996.54 1023.27 995.08 1022.86 993.79 1021.99C990.31 1019.67 989.37 1014.97 991.69 1011.49L996.74 1003.91C999.06 1000.42 1003.76 999.48 1007.25 1001.81C1010.73 1004.13 1011.67 1008.84 1009.35 1012.32L1004.29 1019.89C1002.83 1022.08 1000.43 1023.27 997.98 1023.27Z" />
				</g>
			</g>
			<g id="&lt;Group&gt;">
				<path id="&lt;Path&gt;" class="shp7" d="M794.88 3159.59L932.85 3223C936.28 3224.57 938.98 3227.41 940.38 3230.92C942.04 3235.11 939.1 3239.73 934.59 3239.93C904.62 3241.27 821.1 3238.1 782.05 3236.48C770.56 3236 761.72 3226.05 762.72 3214.59C764.43 3195.04 767.03 3175.39 770.52 3155.65L794.88 3159.59Z" />
				<path id="&lt;Path&gt;" class="shp8" d="M801.1 3132.77L811.11 3172.25C800.11 3180.7 786.55 3181.17 770.44 3173.67L766.23 3138.24L801.1 3132.77Z" />
				<path id="&lt;Path&gt;" class="shp9" d="M769.39 2472.14C767.58 2481.39 759.65 2933.86 808.01 3136.62C808.8 3139.93 807.13 3143.34 803.98 3144.63C796.56 3147.66 782.02 3152.05 764.59 3152.64C759.19 3152.82 754.35 3149.31 752.83 3144.13C739 3097.08 672.75 2861.37 664.11 2636.21C657.67 2468.48 657.67 2465.62 664.11 2627.64L669.78 2472.12L769.39 2472.14Z" />
				<path id="&lt;Path&gt;" class="shp10" d="M642.88 3172.78C659.83 3191.33 665.31 3215.13 667.07 3229.63C667.96 3236.91 662.24 3243.29 654.91 3243.34C639.01 3243.45 619.16 3241.82 606.27 3240.55C598.98 3239.83 593.96 3232.97 595.42 3225.79C600.8 3199.3 606.26 3181.07 611.81 3171.1L642.88 3172.78Z" />
				<path id="&lt;Path&gt;" class="shp11" d="M638.56 3123.45L643.25 3181.1C630.44 3184.59 620.8 3183.92 614.32 3179.11L604.5 3125.53L638.56 3123.45Z" />
				<path id="&lt;Path&gt;" class="shp12" d="M773.39 2460.98L767.91 2543.19L696.37 2594.04C690.6 2598.15 686.42 2604.11 684.56 2610.95C647.7 2745.81 651.62 3087.08 649.44 3142.67C649.27 3146.89 646.43 3150.54 642.37 3151.72C630.61 3155.14 618.68 3154.16 611.44 3152.95C607.17 3152.25 603.77 3149.02 602.78 3144.81C586.54 3076.05 538.41 2724.75 577.96 2486.02L773.39 2460.98Z" />
				<g id="&lt;Group&gt;">
					<path id="&lt;Path&gt;" class="shp13" d="M950.9 2014.3C957.04 2040.44 971.17 2084.64 1001.14 2119.38C961.85 2141.48 914.14 2158.19 856.22 2165.38C808.77 2327.07 779.96 2436.64 769.79 2494.09C700.78 2519.94 635.68 2524.85 574.5 2508.8C555.06 2350.26 557.12 2202.26 580.67 2064.81C667.87 2042.75 750.99 2032.38 830.02 2033.68C866.58 2034.29 908.99 2027.33 950.9 2014.3Z" />
					<path id="&lt;Path&gt;" class="shp14" d="M1001.14 2119.38C971.17 2084.64 957.04 2040.44 950.9 2014.3C1044.88 1985.1 1136.34 1925.35 1153.79 1851.66C1163.62 1847.23 1172.41 1849.7 1180.17 1859.07C1164.79 1974.16 1105.11 2060.93 1001.14 2119.38Z" />
				</g>
				<g id="&lt;Group&gt;">
					<path id="&lt;Path&gt;" class="shp15" d="M1177.35 1862.65C1178.57 1866.52 1164.45 1872.42 1156.15 1856.58C1155.86 1848.99 1151.24 1816.46 1155.78 1810.27C1171.89 1788.31 1195.56 1763.56 1226.79 1736.03C1232.07 1741.24 1232.53 1746.4 1228.18 1751.52L1205.46 1775.2C1210.21 1783.79 1216.01 1791.04 1218.73 1801.43C1220.79 1809.3 1219.53 1817.71 1215.55 1824.87C1211.56 1832.05 1206.12 1841.4 1200.97 1848.71C1194.48 1857.93 1186.6 1862.58 1177.35 1862.65Z" />
					<path id="&lt;Path&gt;" class="shp16" d="M1197.59 1803.89C1194.52 1808.89 1190.91 1822.96 1186.77 1846.08L1168.3 1825.59L1174.81 1808.11L1195.52 1790.56C1199.81 1792.75 1202.21 1796.38 1197.59 1803.89Z" />
				</g>
				<path id="&lt;Path&gt;" class="shp17" d="M548 2261.23C510.73 2242.41 472.66 2236.97 451.74 2235.43C463.88 2171.84 506.86 2114.96 580.67 2064.81L626.14 2179.59C579.5 2203.99 553.45 2231.2 548 2261.23Z" />
				<path id="&lt;Path&gt;" class="shp18" d="M739.36 2318.25C606.14 2412.81 515.03 2415.29 466.05 2325.68C449.15 2294.77 446.25 2264.18 451.74 2235.43C472.66 2236.97 510.73 2242.41 548 2261.23C545.85 2273.03 547.93 2285.41 556.64 2297.87C584.61 2337.86 640.03 2334.44 722.91 2287.6L739.36 2318.25Z" />
				<g id="&lt;Group&gt;">
					<path id="&lt;Path&gt;" class="shp19" d="M707.97 2376.49L775.82 2139.55C776.59 2136.86 778.88 2134.89 781.66 2134.57C793.95 2133.14 829.57 2129.11 870.7 2125.63C920.24 2121.44 977.77 2118.05 1012.14 2120.93C1017.03 2121.34 1019.98 2126.51 1017.81 2130.91C998.26 2170.46 917.85 2331.34 877.58 2384.04C876.25 2385.79 874.18 2386.81 871.99 2386.79L714.57 2385.33C709.99 2385.28 706.71 2380.89 707.97 2376.49Z" />
					<path id="&lt;Path&gt;" class="shp2" d="M877.74 2105.09L926.93 2096.89C929.55 2096.46 931.69 2098.96 930.86 2101.48L925.99 2116.24C925.57 2117.52 924.45 2118.45 923.11 2118.63L875.77 2124.95C873.32 2125.28 871.3 2123.06 871.87 2120.65L874.88 2107.77C875.2 2106.38 876.33 2105.32 877.74 2105.09Z" />
					<path id="&lt;Path&gt;" class="shp20" d="M840.9 2146.73L844.96 2125.63C845.36 2123.51 847.11 2121.91 849.26 2121.69L948.61 2111.61C951.95 2111.27 954.63 2114.33 953.85 2117.6L947.53 2143.91C947.02 2146.01 945.19 2147.53 943.03 2147.64L845.94 2152.53C842.78 2152.68 840.31 2149.84 840.9 2146.73Z" />
					<path id="&lt;Path&gt;" class="shp21" d="M724.36 2319.24C718.06 2293.33 716.18 2275.78 718.72 2266.59C722.53 2252.8 729.92 2235.07 754.54 2239.01C770.96 2241.64 788.84 2246.41 808.21 2253.32C807.23 2265.3 800.5 2269.35 788.03 2265.49L799.63 2274.47C798.53 2284.06 792.7 2286.29 782.17 2281.17L792.96 2293.07C788.43 2300.95 782.29 2302.36 774.54 2297.31C762.91 2289.73 757.34 2323.92 724.36 2319.24Z" />
				</g>
				<path id="&lt;Path&gt;" class="shp22" d="M786.72 1937.44L774.5 2031.85C773.8 2037.31 770.63 2042.12 765.98 2045.07C721.34 2073.37 684.3 2056.94 674.02 2051.26C672.34 2050.33 671.6 2048.33 672.22 2046.52L709.94 1937.44L786.72 1937.44Z" />
				<g id="&lt;Group&gt;">
					<path id="&lt;Path&gt;" class="shp23" d="M792.01 1836.43C819.63 1888.41 831.66 1924.9 828.12 1945.89C822.81 1977.39 771.48 1975.13 726.66 1949.55L695.33 1865.36L792.01 1836.43Z" />
					<path id="&lt;Path&gt;" class="shp24" d="M722.82 1910.78C721.28 1911.46 720.53 1913.2 721.07 1914.79L732.81 1948.91C733.58 1951.14 731.76 1953.46 729.41 1953.19C702.29 1950.04 677.23 1923.9 671.66 1917.75C670.94 1916.95 669.87 1916.59 668.81 1916.74C662.32 1917.67 639.54 1919.46 638.41 1899.08C637.6 1884.34 645.72 1879.01 652.02 1877.08C654.34 1876.37 655.08 1873.5 653.39 1871.76C648.16 1866.39 642.42 1855.4 651.25 1835.99C661.97 1812.42 684.95 1813.99 694.52 1815.81C696.54 1816.2 698.38 1814.6 698.31 1812.54C698.05 1805.55 700.18 1791.67 719.11 1783.18C739.35 1774.1 753.92 1789.07 759.47 1796.29C760.75 1797.96 763.27 1797.92 764.56 1796.25C798.38 1752.36 819.57 1807.45 811.5 1829.35C803.23 1851.82 763.87 1861.63 737.47 1867.95C719.87 1872.16 713.55 1875.86 718.52 1879.04C720.5 1888.09 726.72 1898.43 730.04 1903.5C731.13 1905.17 730.46 1907.4 728.64 1908.2L722.82 1910.78Z" />
					<path id="&lt;Path&gt;" class="shp25" d="M742.49 1928.18C728.27 1934.53 699.56 1926.89 701.71 1909.85C703.15 1898.49 713.7 1899.56 733.36 1913.05L742.49 1928.18Z" />
				</g>
			</g>
			<g id="&lt;Group&gt;">
				<g id="&lt;Group&gt;">
					<path id="&lt;Path&gt;" class="shp20" d="M2845.9 1573.42L2629.97 1559.3L2660.47 1267.42L2810.91 1267.05L2845.9 1573.42Z" />
					<path id="&lt;Path&gt;" class="shp26" d="M2861.12 1559.88C2861.12 1567.36 2855.83 1573.42 2849.31 1573.42L2622.86 1573.42C2616.34 1573.42 2611.05 1567.36 2611.05 1559.88C2611.05 1552.4 2616.34 1546.34 2622.86 1546.34L2849.31 1546.34C2855.83 1546.34 2861.12 1552.4 2861.12 1559.88Z" />
					<path id="&lt;Path&gt;" class="shp27" d="M2837.68 1272.3C2837.68 1280.1 2830.15 1286.42 2820.86 1286.42L2646.79 1286.42C2637.5 1286.42 2629.97 1280.1 2629.97 1272.3C2629.97 1264.5 2637.5 1258.18 2646.79 1258.18L2820.86 1258.18C2830.15 1258.18 2837.68 1264.5 2837.68 1272.3Z" />
				</g>
				<path id="&lt;Path&gt;" class="shp28" d="M1652.96 2790.72L1704.93 3030.24L1652.96 3217.78L1202.8 3093.35C1135.92 3074.86 1080.95 3027.22 1053.14 2963.66L1053.14 2963.66C1040.4 2934.54 1033.83 2903.11 1033.83 2871.33L1033.83 2652.88L1652.96 2790.72Z" />
				<path id="&lt;Path&gt;" class="shp2" d="M2959.01 2607.69L1652.96 2790.72L1033.83 2652.88L2256.27 2501.49L2959.01 2607.69Z" />
				<path id="&lt;Path&gt;" class="shp29" d="M1969.95 2650.14L1663.43 2696.86C1660.62 2697.29 1657.75 2697.16 1654.99 2696.48L1412.69 2637.08C1409.33 2636.26 1409.6 2631.39 1413.03 2630.95L1696.57 2593.82C1699.3 2593.47 1702.07 2593.53 1704.78 2594.02L1970.06 2641.4C1974.99 2642.28 1974.9 2649.38 1969.95 2650.14Z" />
				<path id="&lt;Path&gt;" class="shp30" d="M1652.96 2613.62L1639.68 2633.11L1639.68 2479.74L1652.96 2479.74L1652.96 2613.62Z" />
				<path id="&lt;Path&gt;" class="shp31" d="M1663.28 2500.53L1628.1 2500.53L1628.1 2320.14L1663.28 2320.14L1663.28 2500.53Z" />
				<path id="&lt;Path&gt;" class="shp32" d="M2326.32 1830.39L2907.04 1755.82L2959.01 2607.69L2256.27 2501.49C2263.8 2150.5 2267.57 1968.22 2267.57 1954.66L2326.32 1830.39Z" />
				<path id="&lt;Path&gt;" class="shp33" d="M1682.33 2284.57L1682.33 2396.42C1682.33 2414.51 1667.66 2429.18 1649.57 2429.18L1606.64 2429.18C1588.54 2429.18 1573.87 2414.51 1573.87 2396.42L1573.87 2284.57L1682.33 2284.57Z" />
				<path id="&lt;Path&gt;" class="shp34" d="M1566.29 2300.38L1523.38 2381.66C1519.19 2389.58 1510.97 2394.54 1502.02 2394.54C1485.07 2394.54 1473.39 2377.54 1479.47 2361.72L1503.02 2300.38L1566.29 2300.38Z" />
				<path id="&lt;Path&gt;" class="shp20" d="M3262.32 2807.52L3238.36 2859.87C3221.87 2895.88 3189 2921.71 3150.11 2929.2L1652.96 3217.78L1652.96 2790.72L2959.01 2607.69L2797.15 2040.35C2764.39 1925.51 2651.34 1852.94 2533.28 1870.98L2293.87 1963.7C2216.7 1993.59 2145.48 2037.01 2083.56 2091.91L1872.56 2279C1850.4 2298.65 1822.09 2309.94 1792.49 2310.92C1738.93 2312.7 1646.23 2315.43 1514.41 2319.12L1345.93 1648.43L1448.28 1609.47C1498.66 1595.62 1550.6 1588.28 1602.85 1587.63L2912.85 1571.3C2952.48 1570.81 2990.63 1586.34 3018.65 1614.36L3062.64 1658.34C3079.05 1674.76 3090.25 1695.65 3094.81 1718.41L3257.98 2697.11C3263.07 2722.45 3273.08 2784.02 3262.32 2807.52Z" />
				<path id="&lt;Path&gt;" class="shp2" d="M3078.17 2113.53L2899.9 2130.51C2887.2 2131.72 2875.74 2121.25 2873.18 2106.09L2847.73 1955.36C2844.52 1936.33 2856.49 1918.51 2872.48 1918.51L3047.88 1918.51C3059.41 1918.51 3069.48 1927.99 3072.35 1941.56L3100.65 2075.29C3104.56 2093.76 3093.81 2112.04 3078.17 2113.53Z" />
				<path id="&lt;Path&gt;" class="shp35" d="M1652.96 1718.7L1652.96 2038.27C1652.96 2050.21 1650.67 2062.04 1646.22 2073.12L1558.83 2290.67C1551.6 2308.66 1533.77 2320.08 1514.41 2319.12L1398 2313.37C1377.52 2312.36 1359.95 2298.4 1354.35 2278.67L1304.54 2103.43C1303.33 2099.18 1302.72 2094.78 1302.72 2090.35L1302.72 1690.75C1302.72 1672.41 1312.92 1655.51 1329.27 1647.21C1409.02 1606.72 1510.53 1615.2 1578.41 1628.26C1621.72 1636.6 1652.96 1674.59 1652.96 1718.7Z" />
				<path id="&lt;Path&gt;" class="shp36" d="M2875.1 1843.79C2877.64 1858.55 2870.48 1872.1 2859.1 1874.06C2847.73 1876.01 2836.44 1865.64 2833.9 1850.88C2831.36 1836.12 2838.53 1822.57 2849.9 1820.61C2861.28 1818.65 2872.56 1829.03 2875.1 1843.79Z" />
				<path id="&lt;Path&gt;" class="shp37" d="M2949.67 1843.79C2952.21 1858.55 2945.04 1872.1 2933.67 1874.06C2922.29 1876.01 2911.01 1865.64 2908.47 1850.88C2905.93 1836.12 2913.09 1822.57 2924.47 1820.61C2935.85 1818.65 2947.13 1829.03 2949.67 1843.79Z" />
				<path id="&lt;Path&gt;" class="shp38" d="M3024.23 1843.79C3026.77 1858.55 3019.61 1872.1 3008.24 1874.06C2996.86 1876.01 2985.58 1865.64 2983.04 1850.88C2980.5 1836.12 2987.66 1822.57 2999.04 1820.61C3010.41 1818.65 3021.69 1829.03 3024.23 1843.79Z" />
				<path id="&lt;Path&gt;" class="shp39" d="M1820.17 1745.09L1820.17 1980.38C1820.17 1994.42 1808.79 2005.8 1794.75 2005.8L1748.99 2005.8L1748.99 1719.67L1794.75 1719.67C1808.79 1719.67 1820.17 1731.05 1820.17 1745.09Z" />
				<path id="&lt;Path&gt;" class="shp40" d="M1748.99 1810.05L1855.44 1759.87C1864.08 1756.26 1878.92 1766.14 1878.92 1775.51L1878.92 1780.25C1878.92 1791.38 1872.01 1801.33 1861.59 1805.23L1748.99 1847.33L1748.99 1810.05Z" />
				<path id="&lt;Path&gt;" class="shp2" d="M1748.99 1803.44L1851 1760.86C1859.64 1757.25 1869.17 1763.6 1869.17 1772.97L1869.17 1777.71C1869.17 1788.84 1862.27 1798.79 1851.84 1802.69L1748.99 1841.15L1748.99 1803.44Z" />
			</g>
			<g id="&lt;Group&gt;">
				<g id="&lt;Group&gt;">
					<g id="&lt;Group&gt;">
						<path id="&lt;Path&gt;" class="shp2" d="M2185.71 2739.94L3110.96 2739.94L3110.96 2918.33L2185.71 2918.33C2205.52 2918.33 2205.52 2739.94 2185.71 2739.94Z" />
						<path id="&lt;Path&gt;" class="shp41" d="M3110.96 2873.69L3110.96 2792.05C3110.96 2763.27 3092.67 2739.94 3070.12 2739.94L2189.61 2739.94C2171.88 2739.94 2157.5 2726.09 2157.5 2709C2157.5 2703.81 2161.87 2699.6 2167.25 2699.6L3129.58 2699.6C3151.65 2699.6 3186.69 2733.02 3186.69 2774.25L3186.69 2888.27C3186.69 2927.15 3152.67 2958.66 3131.86 2958.66L2172.32 2958.66C2164.13 2958.66 2157.5 2952.27 2157.5 2944.39C2157.5 2929.99 2169.61 2918.33 2184.55 2918.33L3075.97 2918.33C3095.29 2918.33 3110.96 2898.34 3110.96 2873.69Z" />
					</g>
					<path id="&lt;Path&gt;" class="shp0" d="M3085.3 2779.95L2217.75 2779.95C2215.87 2779.95 2214.34 2778.42 2214.34 2776.54C2214.34 2774.66 2215.87 2773.13 2217.75 2773.13L3085.3 2773.13C3087.18 2773.13 3088.7 2774.66 3088.7 2776.54C3088.7 2778.42 3087.18 2779.95 3085.3 2779.95Z" />
					<path id="&lt;Path&gt;" class="shp0" d="M3085.3 2806.42L2217.75 2806.42C2215.87 2806.42 2214.34 2804.9 2214.34 2803.02C2214.34 2801.13 2215.87 2799.61 2217.75 2799.61L3085.3 2799.61C3087.18 2799.61 3088.7 2801.13 3088.7 2803.02C3088.7 2804.9 3087.18 2806.42 3085.3 2806.42Z" />
					<path id="&lt;Path&gt;" class="shp0" d="M3085.3 2832.9L2217.75 2832.9C2215.87 2832.9 2214.34 2831.38 2214.34 2829.5C2214.34 2827.61 2215.87 2826.09 2217.75 2826.09L3085.3 2826.09C3087.18 2826.09 3088.7 2827.61 3088.7 2829.5C3088.7 2831.38 3087.18 2832.9 3085.3 2832.9Z" />
					<path id="&lt;Path&gt;" class="shp0" d="M3085.3 2859.38L2217.75 2859.38C2215.87 2859.38 2214.34 2857.86 2214.34 2855.98C2214.34 2854.09 2215.87 2852.57 2217.75 2852.57L3085.3 2852.57C3087.18 2852.57 3088.7 2854.09 3088.7 2855.98C3088.7 2857.86 3087.18 2859.38 3085.3 2859.38Z" />
					<path id="&lt;Path&gt;" class="shp0" d="M3085.3 2885.86L2217.75 2885.86C2215.87 2885.86 2214.34 2884.34 2214.34 2882.45C2214.34 2880.57 2215.87 2879.05 2217.75 2879.05L3085.3 2879.05C3087.18 2879.05 3088.7 2880.57 3088.7 2882.45C3088.7 2884.34 3087.18 2885.86 3085.3 2885.86Z" />
				</g>
				<g id="&lt;Group&gt;">
					<path id="&lt;Path&gt;" class="shp42" d="M3241.68 3254.84L2049.61 3254.84C2037.79 3254.84 2028.21 3245.26 2028.21 3233.44L2028.21 2978.15C2028.21 2966.34 2037.79 2956.76 2049.61 2956.76L3241.68 2956.76C3253.49 2956.76 3263.07 2966.34 3263.07 2978.15L3263.07 3233.44C3263.07 3245.26 3253.49 3254.84 3241.68 3254.84Z" />
					<path id="&lt;Path&gt;" class="shp20" d="M2305.6 3220.58L2175.01 3220.58C2171.01 3220.58 2167.77 3217.34 2167.77 3213.34L2167.77 2998.26C2167.77 2994.26 2171.01 2991.02 2175.01 2991.02L2305.6 2991.02C2309.6 2991.02 2312.84 2994.26 2312.84 2998.26L2312.84 3213.34C2312.84 3217.34 2309.6 3220.58 2305.6 3220.58Z" />
					<path id="&lt;Path&gt;" class="shp20" d="M2382.72 3220.58L2340.07 3220.58C2336.81 3220.58 2334.18 3217.94 2334.18 3214.69L2334.18 2996.91C2334.18 2993.66 2336.81 2991.02 2340.07 2991.02L2382.72 2991.02C2385.97 2991.02 2388.61 2993.66 2388.61 2996.91L2388.61 3214.69C2388.61 3217.94 2385.97 3220.58 2382.72 3220.58Z" />
				</g>
			</g>
			<g id="&lt;Group&gt;">
				<path id="&lt;Path&gt;" class="shp43" d="M1953.11 2981.57C1953.54 2981.41 2184.11 2577.63 2215.26 2539.63C2220.51 2533.24 2228.62 2529.98 2236.83 2530.96L2301.18 2538.63L2376.78 2702.19L2250.83 2628.83C2263.29 2715.03 2101.49 2843.13 2046 2889.87C2040.36 2894.61 2039.9 2903.11 2044.99 2908.43L2067.14 2931.63C2030.77 2968.49 1988.8 2992.17 1941.43 3003.12L1953.11 2981.57Z" />
				<path id="&lt;Path&gt;" class="shp44" d="M2054.33 2919.11C2063.75 2922.16 2070.06 2927.88 2073.25 2936.27C2075.54 2942.3 2073.08 2949.12 2067.84 2952.87C2044.55 2969.55 1967.76 3023.41 1932.32 3033.95C1929.41 3034.82 1926.65 3032.19 1927.3 3029.23C1929.12 3021 1935 3004.56 1953.95 2980.49L1952.25 2983.93C1950.1 2988.28 1954.84 2992.81 1959.07 2990.43C1982.77 2977.04 2031.06 2947.76 2054.33 2919.11Z" />
				<path id="&lt;Path&gt;" class="shp45" d="M2042.92 3080.67C2043.3 3080.42 2077.9 2997.08 2078.28 2996.83C2110 2803.72 2187.39 2638.34 2210.21 2594.82C2214.05 2587.5 2221.33 2582.67 2229.57 2581.97L2294.14 2576.45L2401.29 2721.33L2263.09 2674.98C2292.74 2756.87 2160.21 2915.07 2115.32 2972.07C2110.77 2977.86 2112.04 2986.27 2118.09 2990.46L2144.48 3008.68C2116.33 3052.15 2080.02 3083.83 2035.84 3104.13L2042.92 3080.67Z" />
				<path id="&lt;Path&gt;" class="shp46" d="M2129.4 2999.02C2139.25 3000.09 2146.58 3004.42 2151.41 3011.99C2154.87 3017.43 2153.83 3024.61 2149.46 3029.35C2130.04 3050.4 2065.73 3118.68 2033.16 3136.18C2030.49 3137.61 2027.25 3135.6 2027.29 3132.57C2027.4 3124.14 2029.84 3106.85 2043.53 3079.44L2042.56 3083.15C2041.33 3087.85 2046.89 3091.33 2050.55 3088.14C2071.05 3070.24 2112.41 3031.78 2129.4 2999.02Z" />
				<g id="&lt;Group&gt;">
					<path id="&lt;Path&gt;" class="shp47" d="M2596.42 2545.94C2635.36 2603.87 2656.43 2646.04 2659.63 2672.47C2664.42 2712.1 2643.47 2725.81 2582.33 2730.86C2461.03 2740.89 2370.48 2727.73 2310.68 2691.37C2298.24 2612.01 2289.38 2591.82 2185.43 2548.67C2273.08 2555.63 2325.73 2555.69 2343.37 2548.84C2361.01 2541.99 2445.36 2541.03 2596.42 2545.94Z" />
				</g>
				<g id="&lt;Group&gt;">
					<path id="&lt;Path&gt;" class="shp48" d="M2423.56 2033.68C2442.89 2041.42 2454.65 2050.39 2458.83 2060.58C2463.87 2072.84 2494.97 2072.23 2499.81 2096.72C2502.31 2109.36 2512.48 2118.9 2525.33 2119.94C2557.32 2122.51 2607.27 2135.44 2619.02 2189.82C2628 2231.33 2607.76 2248.77 2585.72 2255.88C2569.53 2261.11 2559.73 2277.93 2564.26 2294.32C2568.61 2310.05 2565.17 2328.84 2538.57 2345.42C2498.84 2370.18 2455.71 2347.33 2409.18 2276.88L2382.67 2085.49L2423.56 2033.68Z" />
					<path id="&lt;Path&gt;" class="shp49" d="M2438.43 2534.44C2393.08 2491.26 2359.24 2455.36 2336.92 2426.76C2318.82 2403.57 2313.13 2373.04 2321.51 2344.83C2336.79 2293.33 2363.96 2239.98 2366.44 2231.68C2368.97 2223.19 2395.66 2219.13 2446.51 2219.48C2546.58 2284.42 2616.27 2371.9 2655.59 2481.91L2589.35 2502.53C2563.23 2458.7 2537.26 2422.85 2511.44 2394.98C2556.11 2453.99 2579.23 2495.57 2580.8 2519.73L2438.43 2534.44Z" />
					<path id="&lt;Path&gt;" class="shp50" d="M2308.82 2560L2359.93 2504.39L2418.97 2520.28C2464.85 2527.39 2500.92 2527.39 2527.18 2520.28C2553.44 2513.18 2566.57 2509.62 2566.57 2509.62L2655.59 2481.91L2669.57 2521.42C2673.11 2531.45 2669.55 2542.59 2660.87 2548.75C2653.17 2554.22 2644.15 2560.24 2638.39 2562.75C2630.58 2566.17 2540.57 2566.71 2368.36 2564.37L2308.82 2560Z" />
					<path id="&lt;Path&gt;" class="shp51" d="M2408.44 2122.97L2445.36 2223.1C2441.97 2243.91 2389.56 2244.5 2381.46 2232.07C2380.64 2230.81 2380.17 2229.34 2379.86 2227.87L2363.26 2149.58C2361.95 2143.36 2364.9 2137.03 2370.51 2134.05L2390.88 2123.2C2398.73 2119.03 2405.73 2114.51 2408.44 2122.97Z" />
					<g id="&lt;Group&gt;">
						<path id="&lt;Path&gt;" class="shp52" d="M2420.95 2113.43C2399.04 2148.6 2371.42 2156.6 2352.15 2159.02C2332.88 2161.43 2312.8 2146.08 2321.06 2098.65C2326.57 2067.03 2337.9 2044.47 2355.04 2030.98C2388.85 2006.08 2442.85 2078.25 2420.95 2113.43Z" />
						<path id="&lt;Path&gt;" class="shp53" d="M2395.08 2096.4C2398.49 2051.41 2381.95 2033.65 2345.49 2043.12L2335.12 2055.59C2315.57 2036.52 2315.25 2018.57 2334.16 2001.73C2362.52 1976.48 2404.61 1979.4 2430.69 2019.79C2456.76 2060.18 2467.25 2089.12 2449.81 2116.64C2438.18 2134.99 2426.99 2137.04 2416.22 2122.8C2421.05 2107.3 2420.78 2096.49 2415.41 2090.37C2410.04 2084.25 2404.56 2086.54 2398.98 2097.22L2395.08 2096.4Z" />
						<path id="&lt;Path&gt;" class="shp54" d="M2403.07 2101.57C2404.68 2078.44 2411.57 2069.72 2423.74 2075.43C2441.99 2083.98 2419.72 2107.97 2410.7 2116.23L2403.07 2101.57Z" />
					</g>
				</g>
				<g id="&lt;Group&gt;">
					<path id="&lt;Path&gt;" class="shp55" d="M2478.02 2582.01C2477.84 2582.02 2477.66 2582.03 2477.48 2582.03L2242.37 2581.77C2236.56 2581.76 2231.85 2577.05 2231.86 2571.24C2231.86 2565.42 2236.6 2560.62 2242.39 2560.72L2477.5 2560.98C2483.31 2560.98 2488.02 2565.7 2488.01 2571.51C2488.01 2577.14 2483.58 2581.74 2478.02 2582.01Z" />
					<path id="&lt;Path&gt;" class="shp56" d="M2031.01 2368.55L2226.82 2368.55C2241.26 2368.55 2254.41 2376.88 2260.57 2389.95L2351.09 2581.89L2107.76 2581.89C2098.45 2581.89 2090.09 2576.2 2086.67 2567.54L2016.47 2389.93C2012.42 2379.67 2019.98 2368.55 2031.01 2368.55Z" />
					<path id="&lt;Path&gt;" class="shp20" d="M2168.96 2466.96C2173.2 2480.14 2170.07 2492.95 2161.96 2495.56C2153.85 2498.17 2143.83 2489.6 2139.59 2476.41C2135.35 2463.23 2138.48 2450.43 2146.59 2447.82C2154.7 2445.21 2164.72 2453.78 2168.96 2466.96Z" />
				</g>
			</g>
		</g>
	</g>
</svg>